<?xml version="1.0" encoding="UTF-8"?>
<svg xmlns="http://www.w3.org/2000/svg" viewBox="0 0 48 48">
  <path fill="#0277bd" d="M24,4c-5.1,0-9.3,1.1-12.2,2.9c-2.6,1.6-4.2,3.7-4.2,6.1v4c0,0.6,0.4,1,1,1h0.4c0.6,0,1-0.4,1-1v-4 c0-1.6,1.1-3.2,3.2-4.4c2.7-1.6,6.6-2.6,10.8-2.6s8.1,1,10.8,2.6c2.1,1.2,3.2,2.8,3.2,4.4v4c0,0.6,0.4,1,1,1h0.4c0.6,0,1-0.4,1-1 v-4c0-2.4-1.6-4.5-4.2-6.1C33.3,5.1,29.1,4,24,4z"/>
  <path fill="#0277bd" d="M36.4,17c-0.6,0-1,0.4-1,1v4c0,1.6-1.1,3.2-3.2,4.4c-2.7,1.6-6.6,2.6-10.8,2.6s-8.1-1-10.8-2.6 c-2.1-1.2-3.2-2.8-3.2-4.4v-4c0-0.6-0.4-1-1-1h-0.4c-0.6,0-1,0.4-1,1v4c0,2.4,1.6,4.5,4.2,6.1c2.9,1.8,7.1,2.9,12.2,2.9 s9.3-1.1,12.2-2.9c2.6-1.6,4.2-3.7,4.2-6.1v-4c0-0.6-0.4-1-1-1H36.4z"/>
  <path fill="#0277bd" d="M36.4,26c-0.6,0-1,0.4-1,1v4c0,1.6-1.1,3.2-3.2,4.4c-2.7,1.6-6.6,2.6-10.8,2.6s-8.1-1-10.8-2.6 c-2.1-1.2-3.2-2.8-3.2-4.4v-4c0-0.6-0.4-1-1-1h-0.4c-0.6,0-1,0.4-1,1v4c0,2.4,1.6,4.5,4.2,6.1c2.9,1.8,7.1,2.9,12.2,2.9 s9.3-1.1,12.2-2.9c2.6-1.6,4.2-3.7,4.2-6.1v-4c0-0.6-0.4-1-1-1H36.4z"/>
  <circle cx="24" cy="13" r="4" fill="#0277bd"/>
</svg> 