<?xml version="1.0" encoding="UTF-8"?>
<svg width="100" height="100" viewBox="0 0 100 100" fill="none" xmlns="http://www.w3.org/2000/svg">
    <path d="M50 50C50 44.4772 54.4772 40 60 40C65.5228 40 70 44.4772 70 50C70 55.5228 65.5228 60 60 60C54.4772 60 50 55.5228 50 50Z" fill="#1ABCFE"/>
    <path d="M30 70C30 64.4772 34.4772 60 40 60H50V70C50 75.5228 45.5228 80 40 80C34.4772 80 30 75.5228 30 70Z" fill="#0ACF83"/>
    <path d="M50 20V40H60C65.5228 40 70 35.5228 70 30C70 24.4772 65.5228 20 60 20H50Z" fill="#FF7262"/>
    <path d="M30 30C30 35.5228 34.4772 40 40 40H50V20H40C34.4772 20 30 24.4772 30 30Z" fill="#F24E1E"/>
    <path d="M30 50C30 55.5228 34.4772 60 40 60H50V40H40C34.4772 40 30 44.4772 30 50Z" fill="#A259FF"/>
</svg> 