<svg xmlns="http://www.w3.org/2000/svg" xmlns:xlink="http://www.w3.org/1999/xlink" viewBox="0,0,256,256" width="100px" height="100px" fill-rule="nonzero"><g fill="none" fill-rule="nonzero" stroke="none" stroke-width="1" stroke-linecap="butt" stroke-linejoin="miter" stroke-miterlimit="10" stroke-dasharray="" stroke-dashoffset="0" font-family="none" font-weight="none" font-size="none" text-anchor="none" style="mix-blend-mode: normal"><g transform="scale(2.56,2.56)"><circle cx="78" cy="14" r="1" fill="#fd2175"></circle><circle cx="50" cy="50" r="38" fill="#f9dbd2"></circle><circle cx="84" cy="16" r="4" fill="#fd2175"></circle><circle cx="14" cy="26" r="2" fill="#ee3e54"></circle><circle cx="78" cy="77" r="2" fill="#fbcd59"></circle><circle cx="17" cy="78" r="4" fill="#fbcd59"></circle><circle cx="24" cy="83" r="2" fill="#ee3e54"></circle><circle cx="64.483" cy="78.517" r="2.483" fill="#ffffff"></circle><circle cx="16" cy="48" r="1" fill="#ffffff"></circle><circle cx="86" cy="31" r="1" fill="#fd2175"></circle><circle cx="84" cy="45" r="2" fill="#ffffff"></circle><g fill="#e1e0d8"><path d="M66.719,73h-31.438c-4.021,0 -7.281,-3.26 -7.281,-7.281v-31.438c0,-4.021 3.26,-7.281 7.281,-7.281h31.438c4.021,0 7.281,3.26 7.281,7.281v31.438c0,4.021 -3.26,7.281 -7.281,7.281z"></path></g><g><path d="M66.719,73h-31.438c-4.021,0 -7.281,-3.26 -7.281,-7.281v-31.438c0,-4.021 3.26,-7.281 7.281,-7.281h31.438c4.021,0 7.281,3.26 7.281,7.281v31.438c0,4.021 -3.26,7.281 -7.281,7.281z" fill="#00a5a5"></path><path d="M66.719,73.7h-31.438c-4.401,0 -7.981,-3.58 -7.981,-7.981v-31.438c0,-4.401 3.58,-7.981 7.981,-7.981h31.438c4.401,0 7.981,3.58 7.981,7.981v31.438c0,4.401 -3.58,7.981 -7.981,7.981zM35.281,27.7c-3.629,0 -6.581,2.952 -6.581,6.581v31.438c0,3.629 2.952,6.581 6.581,6.581h31.438c3.629,0 6.581,-2.952 6.581,-6.581v-31.438c0,-3.629 -2.952,-6.581 -6.581,-6.581z" fill="#472b29"></path></g><g fill="#472b29"><path d="M31.5,40.167c-0.276,0 -0.5,-0.224 -0.5,-0.5v-4.333c0,-2.941 2.393,-5.334 5.333,-5.334h14c0.276,0 0.5,0.224 0.5,0.5c0,0.276 -0.224,0.5 -0.5,0.5h-14c-2.39,0 -4.333,1.944 -4.333,4.333v4.333c0,0.277 -0.224,0.501 -0.5,0.501z"></path></g><g fill="#472b29"><path d="M42.583,70h-6.25c-2.94,0 -5.333,-2.393 -5.333,-5.333v-20.334c0,-0.276 0.224,-0.5 0.5,-0.5c0.276,0 0.5,0.224 0.5,0.5v20.333c0,2.39 1.943,4.334 4.333,4.334h6.25c0.276,0 0.5,0.224 0.5,0.5c0,0.276 -0.224,0.5 -0.5,0.5z"></path></g><g fill="#472b29"><path d="M65.667,70h-19.75c-0.276,0 -0.5,-0.224 -0.5,-0.5c0,-0.276 0.224,-0.5 0.5,-0.5h19.75c2.39,0 4.333,-1.944 4.333,-4.333v-5.083c0,-0.276 0.224,-0.5 0.5,-0.5c0.276,0 0.5,0.224 0.5,0.5v5.083c0,2.94 -2.393,5.333 -5.333,5.333z"></path></g><g fill="#472b29"><path d="M70.5,56.167c-0.276,0 -0.5,-0.224 -0.5,-0.5v-20.334c0,-2.389 -1.943,-4.333 -4.333,-4.333h-2.75c-0.276,0 -0.5,-0.224 -0.5,-0.5c0,-0.276 0.224,-0.5 0.5,-0.5h2.75c2.94,0 5.333,2.393 5.333,5.333v20.333c0,0.277 -0.224,0.501 -0.5,0.501z"></path></g><g fill="#472b29"><path d="M59.5,31h-6.25c-0.276,0 -0.5,-0.224 -0.5,-0.5c0,-0.276 0.224,-0.5 0.5,-0.5h6.25c0.276,0 0.5,0.224 0.5,0.5c0,0.276 -0.224,0.5 -0.5,0.5z"></path></g><g><path d="M65,53h-5.068l-6.6,-11l2.383,-3.971c0.568,-0.947 0.262,-2.176 -0.686,-2.744c-0.948,-0.568 -2.176,-0.262 -2.744,0.686l-1.285,2.142l-1.285,-2.142c-0.568,-0.947 -1.798,-1.253 -2.744,-0.686c-0.947,0.568 -1.254,1.797 -0.686,2.744l2.383,3.971l-6.6,11h-5.068c-1.104,0 -2,0.896 -2,2c0,1.104 0.896,2 2,2h2.668l-2.383,3.971c-0.568,0.947 -0.262,2.176 0.686,2.744c0.322,0.193 0.676,0.285 1.027,0.285c0.68,0 1.342,-0.346 1.717,-0.971l3.617,-6.029h13.335l3.617,6.029c0.376,0.625 1.038,0.971 1.718,0.971c0.351,0 0.705,-0.092 1.027,-0.285c0.947,-0.568 1.254,-1.797 0.686,-2.744l-2.383,-3.971h2.668c1.104,0 2,-0.896 2,-2c0,-1.104 -0.896,-2 -2,-2zM46.732,53l4.268,-7.113l4.268,7.113z" fill="#ffffff"></path><path d="M63.002,64.25c-0.799,0 -1.521,-0.408 -1.932,-1.092l-3.544,-5.908h-13.052l-3.544,5.908c-0.411,0.684 -1.133,1.092 -1.932,1.092c-0.406,0 -0.807,-0.111 -1.156,-0.321c-0.515,-0.309 -0.879,-0.801 -1.024,-1.384c-0.146,-0.583 -0.056,-1.188 0.253,-1.703l2.156,-3.592h-2.227c-1.24,0 -2.25,-1.009 -2.25,-2.25c0,-1.241 1.01,-2.25 2.25,-2.25h4.926l6.45,-10.75l-2.306,-3.842c-0.309,-0.515 -0.398,-1.12 -0.253,-1.703c0.146,-0.583 0.51,-1.074 1.024,-1.384c1.068,-0.638 2.449,-0.291 3.088,0.771l1.071,1.785l1.07,-1.785c0.64,-1.062 2.021,-1.409 3.088,-0.771c0.515,0.31 0.879,0.801 1.024,1.384c0.146,0.583 0.056,1.188 -0.253,1.703l-2.305,3.842l6.45,10.75h4.926c1.24,0 2.25,1.009 2.25,2.25c0,1.241 -1.01,2.25 -2.25,2.25h-2.227l2.156,3.592c0.309,0.515 0.398,1.12 0.253,1.703c-0.146,0.583 -0.51,1.074 -1.024,1.384c-0.349,0.21 -0.75,0.321 -1.156,0.321zM44.332,56.75h13.336c0.088,0 0.169,0.046 0.215,0.121l3.617,6.029c0.318,0.532 0.88,0.849 1.502,0.849c0.315,0 0.627,-0.086 0.898,-0.25c0.827,-0.496 1.097,-1.573 0.6,-2.401l-2.383,-3.971c-0.046,-0.077 -0.047,-0.173 -0.003,-0.252c0.045,-0.079 0.128,-0.127 0.218,-0.127h2.668c0.965,0 1.75,-0.785 1.75,-1.75c0,-0.965 -0.785,-1.75 -1.75,-1.75h-5.067c-0.088,0 -0.169,-0.046 -0.215,-0.121l-6.601,-11c-0.047,-0.079 -0.047,-0.178 0,-0.257l2.383,-3.971c0.497,-0.828 0.228,-1.905 -0.6,-2.401c-0.826,-0.495 -1.904,-0.228 -2.4,0.6l-1.285,2.142c-0.092,0.15 -0.338,0.15 -0.43,0l-1.285,-2.141c-0.496,-0.827 -1.574,-1.096 -2.4,-0.6c-0.827,0.496 -1.097,1.573 -0.6,2.401l2.383,3.971c0.047,0.079 0.047,0.178 0,0.257l-6.601,11c-0.046,0.075 -0.127,0.121 -0.215,0.121h-5.067c-0.965,0 -1.75,0.785 -1.75,1.75c0,0.965 0.785,1.75 1.75,1.75h2.668c0.09,0 0.173,0.048 0.218,0.127c0.044,0.078 0.043,0.175 -0.003,0.252l-2.383,3.971c-0.497,0.828 -0.228,1.905 0.6,2.401c0.271,0.163 0.583,0.25 0.898,0.25c0.622,0 1.184,-0.318 1.502,-0.849l3.617,-6.029c0.046,-0.076 0.127,-0.122 0.215,-0.122zM55.268,53.25h-8.535c-0.09,0 -0.173,-0.048 -0.218,-0.127c-0.044,-0.078 -0.043,-0.175 0.003,-0.252l4.268,-7.113c0.092,-0.15 0.338,-0.15 0.43,0l4.268,7.113c0.046,0.077 0.047,0.174 0.003,0.252c-0.047,0.079 -0.13,0.127 -0.219,0.127zM47.174,52.75h7.652l-3.826,-6.377z" fill="#472b29"></path><path d="M52.603,43.453c-0.044,0 -0.089,-0.011 -0.129,-0.036c-0.118,-0.071 -0.156,-0.225 -0.085,-0.343l0.71,-1.183c0.07,-0.119 0.225,-0.157 0.343,-0.086c0.118,0.071 0.156,0.225 0.085,0.343l-0.71,1.183c-0.047,0.079 -0.129,0.122 -0.214,0.122z" fill="#472b29"></path><path d="M50.938,46.229c-0.044,0 -0.088,-0.011 -0.129,-0.036c-0.118,-0.071 -0.156,-0.225 -0.086,-0.343l1.156,-1.927c0.071,-0.119 0.223,-0.157 0.344,-0.086c0.118,0.071 0.156,0.225 0.086,0.343l-1.156,1.927c-0.048,0.079 -0.131,0.122 -0.215,0.122z" fill="#472b29"></path><path d="M57.729,57.354c-0.084,0 -0.167,-0.043 -0.214,-0.12l-2.521,-4.146c-0.071,-0.118 -0.034,-0.272 0.084,-0.344c0.118,-0.071 0.271,-0.035 0.344,0.084l2.521,4.146c0.071,0.118 0.034,0.272 -0.084,0.344c-0.041,0.025 -0.085,0.036 -0.13,0.036z" fill="#472b29"></path><g fill="#472b29"><path d="M44.578,57.252h-5c-0.138,0 -0.25,-0.112 -0.25,-0.25c0,-0.138 0.112,-0.25 0.25,-0.25h5c0.138,0 0.25,0.112 0.25,0.25c0,0.138 -0.112,0.25 -0.25,0.25z"></path></g></g></g></g></svg>