<?xml version="1.0" encoding="UTF-8"?>
<svg width="100" height="100" viewBox="0 0 100 100" fill="none" xmlns="http://www.w3.org/2000/svg">
    <path fill-rule="evenodd" clip-rule="evenodd" d="M50 90C72.0914 90 90 72.0914 90 50C90 27.9086 72.0914 10 50 10C27.9086 10 10 27.9086 10 50C10 72.0914 27.9086 90 50 90ZM61.1947 41.4737C59.4211 39.7895 57.1053 39 54.2105 39C51.3158 39 49 39.7895 47.2263 41.4737C45.4526 43.1579 44.5789 45.3684 44.5789 48C44.5789 50.6316 45.4526 52.8421 47.2263 54.5263C49 56.2105 51.3158 57 54.2105 57C57.1053 57 59.4211 56.2105 61.1947 54.5263C62.9684 52.8421 63.8421 50.6316 63.8421 48C63.8421 45.3684 62.9684 43.1579 61.1947 41.4737ZM40.7895 35.8421C42.5632 34.1579 44.7895 33.3684 47.4211 33.3684C48.5789 33.3684 49.6316 33.5263 50.5789 33.8421C51.5263 34.1579 52.3684 34.5789 53.1053 35.1053C53.8421 35.6316 54.4211 36.1579 54.8421 36.6842C55.2632 37.2105 55.6842 37.8421 56.1053 38.5789L56.7368 37.4211C57.1579 36.6842 57.6842 36.0526 58.3158 35.5263C58.9474 35 59.7368 34.5789 60.6842 34.2632C61.6316 33.9474 62.7368 33.7895 64 33.7895C66.6316 33.7895 68.8421 34.5789 70.6158 36.1579C72.3895 37.7368 73.2632 39.8421 73.2632 42.4737C73.2632 43.7368 73.1053 44.8421 72.7895 45.7895C72.4737 46.7368 72.0526 47.5263 71.5263 48.1579C71 48.7895 70.3684 49.3158 69.6316 49.7368C68.8947 50.1579 68.2632 50.5789 67.7368 51L66.5789 51.6316L67.7368 52.2632C68.2632 52.5789 68.8947 53 69.6316 53.4211C70.3684 53.8421 71 54.3684 71.5263 55C72.0526 55.6316 72.4737 56.4211 72.7895 57.3684C73.1053 58.3158 73.2632 59.4211 73.2632 60.6842C73.2632 63.3158 72.3895 65.4211 70.6158 67C68.8421 68.5789 66.6316 69.3684 64 69.3684C62.7368 69.3684 61.6316 69.2105 60.6842 68.8947C59.7368 68.5789 58.9474 68.1579 58.3158 67.6316C57.6842 67.1053 57.1579 66.4737 56.7368 65.7368L56.1053 64.5789C55.6842 65.3158 55.2632 65.9474 54.8421 66.4737C54.4211 67 53.8421 67.5263 53.1053 68.0526C52.3684 68.5789 51.5263 69 50.5789 69.3158C49.6316 69.6316 48.5789 69.7895 47.4211 69.7895C44.7895 69.7895 42.5632 69 40.7895 67.3158C39.0158 65.6316 38.1421 63.4211 38.1421 60.7895V42.3684C38.1421 39.7368 39.0158 37.5263 40.7895 35.8421Z" fill="#7D2AE8"/>
</svg> 