<?xml version="1.0" encoding="UTF-8"?>
<svg width="100" height="100" viewBox="0 0 100 100" fill="none" xmlns="http://www.w3.org/2000/svg">
    <mask id="mask0" mask-type="alpha" maskUnits="userSpaceOnUse" x="10" y="10" width="80" height="80">
        <path d="M80 10L20 10C14.4772 10 10 14.4772 10 20L10 80C10 85.5228 14.4772 90 20 90H80C85.5228 90 90 85.5228 90 80V20C90 14.4772 85.5228 10 80 10Z" fill="white"/>
    </mask>
    <g mask="url(#mask0)">
        <path d="M76.7069 85.8831L37.2028 90L76.7069 94.1169V85.8831Z" fill="#0065A9"/>
        <path d="M76.7069 85.8831L37.2028 90L76.7069 94.1169V85.8831Z" fill="#007ACC"/>
        <path d="M21.8744 74.3887L37.2028 90L76.7069 85.8831V74.3887L21.8744 74.3887Z" fill="#1F9CF0"/>
        <path d="M37.2028 90L76.7069 94.1169V85.8831L37.2028 90Z" fill="#0065A9"/>
        <path d="M76.7069 14.1169V5.88306L37.2028 10L76.7069 14.1169Z" fill="#1F9CF0"/>
        <path d="M21.8744 25.6113H76.7069V14.1169L37.2028 10L21.8744 25.6113Z" fill="#0065A9"/>
        <path d="M21.8744 74.3887H76.7069V85.8831L37.2028 90L21.8744 74.3887Z" fill="#007ACC"/>
        <path d="M37.2028 10L76.7069 5.88306V14.1169L37.2028 10Z" fill="#1F9CF0"/>
        <path d="M21.8744 25.6113L37.2028 10L76.7069 14.1169V25.6113H21.8744Z" fill="#007ACC"/>
    </g>
</svg> 